<?xml version="1.0" encoding="utf-8"?>
<!-- Generator: Adobe Illustrator 24.3.0, SVG Export Plug-In . SVG Version: 6.00 Build 0)  -->
<svg version="1.1" id="Layer_1" xmlns="http://www.w3.org/2000/svg" xmlns:xlink="http://www.w3.org/1999/xlink" x="0px" y="0px"
	 viewBox="0 0 512 512" style="enable-background:new 0 0 512 512;" xml:space="preserve">
<path d="M73,115H33V75c0-22.1,17.9-40,40-40h39v40H73V115z"/>
<rect x="232" y="35" width="40" height="40"/>
<rect x="152" y="35" width="40" height="40"/>
<path d="M33,349v-40h40v40h39v40H73C50.9,389,33,371.1,33,349z"/>
<rect x="33" y="231" width="40" height="40"/>
<rect x="33" y="153" width="40" height="40"/>
<path d="M349,75h-39V35h39c22.1,0,40,17.9,40,40v40h-40V75z"/>
<g>
	<g>
		<path d="M286.3,149.5c-6.2,6.2-10.1,13.9-11.7,21.9c-15.9-7.6-35.5-4.8-48.7,8.3c-6.2,6.2-10.1,13.9-11.7,21.9
			c-15.9-7.6-35.5-4.8-48.7,8.3c-13.1,13.1-15.9,32.8-8.3,48.7c-8,1.6-15.7,5.5-21.9,11.7c-16.6,16.6-16.6,43.7,0,60.3l34.6,34.6
			l0,29.4c0,20,7.8,38.7,21.9,52.8l22.9,22.9c14.1,14.1,32.9,21.9,52.8,21.9l60.4,0c44.1,0,85.6-17.2,116.8-48.4
			c54.1-54.1,54.1-142,0-196.1l-98.1-98.1C330,132.8,303,132.8,286.3,149.5z"/>
		<path d="M429.6,262.6c45.8,45.8,45.7,120.2,0,165.9c-27.2,27.2-63.3,42.1-101.7,42.1l-60.4,0c-14.3,0-27.7-5.6-37.7-15.6
			L207,432.2c-10.1-10.1-15.6-23.5-15.6-37.7l0-8.1l12,12c4.2,4.2,10.9,4.2,15.1,0c4.2-4.2,4.2-10.9,0-15.1l-30.2-30.2c0,0,0,0,0,0
			l-37.7-37.7c-8.3-8.3-8.3-21.8,0-30.2c8.3-8.3,21.9-8.3,30.2,0l22.6,22.6c4.2,4.2,10.9,4.2,15.1,0c4.2-4.2,4.2-10.9,0-15.1
			l-37.7-37.7c-8.3-8.3-8.3-21.8,0-30.2s21.9-8.3,30.2,0l37.7,37.7c4.2,4.2,10.9,4.2,15.1,0s4.2-10.9,0-15.1l-22.6-22.6
			c-8.3-8.3-8.3-21.8,0-30.2s21.9-8.3,30.2,0l22.6,22.6c4.2,4.2,10.9,4.2,15.1,0c4.2-4.2,4.2-10.9,0-15.1l-7.5-7.5
			c-8.3-8.3-8.3-21.8,0-30.2c8.3-8.3,21.9-8.3,30.2,0L429.6,262.6z"/>
	</g>
</g>
</svg>
