<?xml version="1.0" encoding="utf-8"?>
<!-- Generator: Adobe Illustrator 24.2.3, SVG Export Plug-In . SVG Version: 6.00 Build 0)  -->
<svg version="1.1" id="Layer_1" xmlns="http://www.w3.org/2000/svg" xmlns:xlink="http://www.w3.org/1999/xlink" x="0px" y="0px"
	 viewBox="0 0 20 14" style="enable-background:new 0 0 20 14;" xml:space="preserve">
<style type="text/css">
	.st0{fill:#FFFFFF;}
</style>
<desc>Created with Sketch.</desc>
<g id="Rotate-v2">
	<g id="Rotate-mode-off" transform="translate(-225.000000, -391.000000)">
		<g id="Toolbar" transform="translate(3.000000, 373.000000)">
			<g id="Menu:-view" transform="translate(207.000000, 1.000000)">
				<g id="Button">
					<path id="Shape" d="M25.3,17.7c-4.3,0-8,2.7-9.5,6.5c1.5,3.8,5.2,6.5,9.5,6.5s8-2.7,9.5-6.5C33.3,20.4,29.7,17.7,25.3,17.7z
						 M25.3,28.6c-2.4,0-4.3-1.9-4.3-4.3s1.9-4.3,4.3-4.3s4.3,1.9,4.3,4.3S27.7,28.6,25.3,28.6z M25.3,21.6c-1.4,0-2.6,1.2-2.6,2.6
						s1.2,2.6,2.6,2.6c1.4,0,2.6-1.2,2.6-2.6S26.8,21.6,25.3,21.6z"/>
				</g>
			</g>
		</g>
	</g>
</g>
<g>
	<rect x="9.8" y="-1.4" transform="matrix(0.6987 -0.7154 0.7154 0.6987 -1.8163 9.4791)" class="st0" width="1" height="16.6"/>
	<g>
		<path class="st0" d="M3.7,1.8l11.9,11.6L3.7,1.8z"/>
		<rect x="9.2" y="-0.7" transform="matrix(0.6987 -0.7154 0.7154 0.6987 -2.5316 9.1968)" width="1" height="16.6"/>
	</g>
</g>
</svg>
