<?xml version="1.0" encoding="UTF-8"?>
<svg width="20px" height="14px" viewBox="0 0 20 14" version="1.1" xmlns="http://www.w3.org/2000/svg" xmlns:xlink="http://www.w3.org/1999/xlink">
    <!-- Generator: Sketch 51.3 (57544) - http://www.bohemiancoding.com/sketch -->
    <title>Shape</title>
    <desc>Created with Sketch.</desc>
    <defs></defs>
    <g id="Rotate-v2" stroke="none" stroke-width="1" fill="none" fill-rule="evenodd">
        <g id="Rotate-mode-off" transform="translate(-225.000000, -391.000000)" fill="#000000" fill-rule="nonzero">
            <g id="Toolbar" transform="translate(3.000000, 373.000000)">
                <g id="Menu:-view" transform="translate(207.000000, 1.000000)">
                    <g id="Button">
                        <path d="M25.3333333,17.75 C21.0151515,17.75 17.3274242,20.4453333 15.8333333,24.25 C17.3274242,28.0546667 21.0151515,30.75 25.3333333,30.75 C29.6515152,30.75 33.3392424,28.0546667 34.8333333,24.25 C33.3392424,20.4453333 29.6515152,17.75 25.3333333,17.75 Z M25.3333333,28.5833333 C22.949697,28.5833333 21.0151515,26.642 21.0151515,24.25 C21.0151515,21.858 22.949697,19.9166667 25.3333333,19.9166667 C27.7169697,19.9166667 29.6515152,21.858 29.6515152,24.25 C29.6515152,26.642 27.7169697,28.5833333 25.3333333,28.5833333 Z M25.3333333,21.65 C23.899697,21.65 22.7424242,22.8113333 22.7424242,24.25 C22.7424242,25.6886667 23.899697,26.85 25.3333333,26.85 C26.7669697,26.85 27.9242424,25.6886667 27.9242424,24.25 C27.9242424,22.8113333 26.7669697,21.65 25.3333333,21.65 Z" id="Shape"></path>
                    </g>
                </g>
            </g>
        </g>
    </g>
</svg>