<?xml version="1.0" encoding="utf-8"?>
<!-- Generator: Adobe Illustrator 24.3.0, SVG Export Plug-In . SVG Version: 6.00 Build 0)  -->
<svg version="1.1" id="Layer_1" xmlns="http://www.w3.org/2000/svg" xmlns:xlink="http://www.w3.org/1999/xlink" x="0px" y="0px"
	 viewBox="0 0 16 19" style="enable-background:new 0 0 16 19;" xml:space="preserve">
<desc>Created with Sketch.</desc>
<g id="Rotate-v2">
	<g id="Rotate-mode-on" transform="translate(-819.000000, -466.000000)">
		<g id="Content" transform="translate(3.000000, 159.000000)">
			<g id="Lower" transform="translate(0.000000, 264.000000)">
				<g id="Pages" transform="translate(110.000000, 29.000000)">
					<g id="Page-1-_x28_4:3-aspect-ratio_x29_">
						<g id="Rotate-page" transform="translate(691.000000, 0.000000)">
							<g id="baseline-rotate_right-24px" transform="translate(15.000000, 14.000000)">
								<path id="Shape" d="M9,9V5.1c2.9,0.5,5,3,5,5.9s-2.2,5.5-5,5.9v2c4-0.5,7-3.9,7-8s-3.1-7.5-7-8V0L4.4,4.6L9,9z M2,10
									c0.1-0.9,0.5-1.7,1-2.5L1.6,6.1C0.7,7.3,0.2,8.6,0,10H2z M4.5,15.9L3,17.4C4.2,18.3,5.6,18.8,7,19v-2
									C6.1,16.8,5.2,16.5,4.5,15.9z M2,12H0c0.2,1.4,0.7,2.7,1.6,3.9l1.4-1.4C2.5,13.8,2.2,12.9,2,12z"/>
							</g>
						</g>
					</g>
				</g>
			</g>
		</g>
	</g>
</g>
</svg>
