<?xml version="1.0" encoding="utf-8"?>
<!-- Generator: Adobe Illustrator 24.2.1, SVG Export Plug-In . SVG Version: 6.00 Build 0)  -->
<svg version="1.1" id="Layer_1" xmlns="http://www.w3.org/2000/svg" xmlns:xlink="http://www.w3.org/1999/xlink" x="0px" y="0px"
	 viewBox="0 0 355 296.7" style="enable-background:new 0 0 355 296.7;" xml:space="preserve">
<g>
	<g>
		<path d="M29.2,236.9L2.6,263.5c-2.1,2.1-3.1,5.2-2.5,8.2c0.6,3,2.6,5.4,5.4,6.6L48.7,296c1.1,0.5,2.3,0.7,3.4,0.7
			c2.4,0,4.7-0.9,6.4-2.6l13.9-13.9L29.2,236.9z"/>
	</g>
</g>
<g>
	<path d="M285.3,122.5l19.6-22.1c11.7-13.2,11.1-33.3-1.4-45.8L254.8,5.9c-12.5-12.5-32.6-3.1-45.8,8.6l-17.4,14.3L285.3,122.5z"/>
	<path d="M178.3,39.6L51.2,144c0,0,0,0-0.1,0.1c-0.2,0.2-0.3,0.3-0.5,0.5c0,0-0.1,0.1-0.1,0.1c-0.2,0.2-0.4,0.4-0.5,0.6
		c0,0-0.1,0.1-0.1,0.1c-0.1,0.2-0.3,0.4-0.4,0.6c0,0.1-0.1,0.1-0.1,0.2c-0.1,0.2-0.3,0.5-0.4,0.7c0,0,0,0.1-0.1,0.1
		c-0.1,0.2-0.2,0.4-0.3,0.6c0,0.1,0,0.1-0.1,0.2c-0.1,0.3-0.2,0.5-0.2,0.8c0,0,0,0.1,0,0.1c0,0.1-0.1,0.3-0.1,0.4l-12.2,69.1l55,55
		l69.1-12.2c0.2,0,0.3-0.1,0.5-0.1c0,0,0.1,0,0.1,0c0.3-0.1,0.5-0.1,0.8-0.2c0.1,0,0.1,0,0.2-0.1c0.2-0.1,0.4-0.2,0.7-0.3
		c0,0,0.1,0,0.1-0.1c0.2-0.1,0.5-0.2,0.7-0.4c0.1,0,0.1-0.1,0.2-0.1c0.2-0.1,0.4-0.3,0.6-0.4c0,0,0.1-0.1,0.1-0.1
		c0.2-0.2,0.4-0.3,0.6-0.5c0,0,0.1-0.1,0.1-0.1c0.2-0.2,0.4-0.3,0.5-0.5c0,0,0,0,0.1-0.1L274,135.3L178.3,39.6z"/>
</g>
<polygon points="355,177.3 274.4,177.3 187,274.8 187,297.3 355,297.3 "/>
</svg>
